HIERARCHY
ROOT joint_0
{
	OFFSET 0.000000 0.000000 0.000000
	CHANNELS 6 Xposition Yposition Zposition Zrotation Yrotation Xrotation 
	JOINT joint_1
	{
		OFFSET 13.542969 -4.074463 123.986084
		CHANNELS 3 Zrotation Yrotation Xrotation
		JOINT joint_2
		{
			OFFSET -0.108154 -3.018066 113.860962
			CHANNELS 3 Zrotation Yrotation Xrotation
			JOINT joint_3
			{
				OFFSET -1.139648 -3.876465 113.702026
				CHANNELS 3 Zrotation Yrotation Xrotation
				JOINT joint_4
				{
					OFFSET 13.593506 -8.582153 160.876953
					CHANNELS 3 Zrotation Yrotation Xrotation
					JOINT joint_5
					{
						OFFSET 26.480957 -11.565674 94.427979
						CHANNELS 3 Zrotation Yrotation Xrotation
						End Site
						{
							OFFSET 0.000000 0.000000 0.000000
						}
					}
				}
				JOINT joint_6
				{
					OFFSET 3.003662 -39.658691 88.713989
					CHANNELS 3 Zrotation Yrotation Xrotation
					JOINT joint_7
					{
						OFFSET -25.253906 -162.506348 -28.477051
						CHANNELS 3 Zrotation Yrotation Xrotation
						JOINT joint_8
						{
							OFFSET 23.083252 -8.502686 -295.281982
							CHANNELS 3 Zrotation Yrotation Xrotation
							JOINT joint_9
							{
								OFFSET 20.205566 -32.167908 -263.458008
								CHANNELS 3 Zrotation Yrotation Xrotation
								End Site
								{
									OFFSET 0.000000 0.000000 0.000000
								}
							}
						}
					}
				}
				JOINT joint_10
				{
					OFFSET 12.313232 30.012939 91.642944
					CHANNELS 3 Zrotation Yrotation Xrotation
					JOINT joint_11
					{
						OFFSET 31.960205 162.667969 -19.398926
						CHANNELS 3 Zrotation Yrotation Xrotation
						JOINT joint_12
						{
							OFFSET 51.325195 40.249023 -289.038086
							CHANNELS 3 Zrotation Yrotation Xrotation
							JOINT joint_13
							{
								OFFSET 70.170898 60.433594 -249.556030
								CHANNELS 3 Zrotation Yrotation Xrotation
								End Site
								{
									OFFSET 0.000000 0.000000 0.000000
								}
							}
						}
					}
				}
			}
		}
	}
	JOINT joint_14
	{
		OFFSET -15.093262 -91.803833 -113.326904
		CHANNELS 3 Zrotation Yrotation Xrotation
		JOINT joint_15
		{
			OFFSET 2.288818 -12.306763 -494.206055
			CHANNELS 3 Zrotation Yrotation Xrotation
			JOINT joint_16
			{
				OFFSET -54.691650 0.383423 -424.447006
				CHANNELS 3 Zrotation Yrotation Xrotation
				JOINT joint_17
				{
					OFFSET 202.154297 -21.791382 -80.181999
					CHANNELS 3 Zrotation Yrotation Xrotation
					End Site
					{
						OFFSET 0.000000 0.000000 0.000000
					}
				}
			}
		}
	}
	JOINT joint_18
	{
		OFFSET 10.704102 91.957275 -113.713013
		CHANNELS 3 Zrotation Yrotation Xrotation
		JOINT joint_19
		{
			OFFSET 0.427490 1.374878 -494.359924
			CHANNELS 3 Zrotation Yrotation Xrotation
			JOINT joint_20
			{
				OFFSET -53.071777 2.769531 -424.643028
				CHANNELS 3 Zrotation Yrotation Xrotation
				JOINT joint_21
				{
					OFFSET 200.264648 -28.253052 -82.862999
					CHANNELS 3 Zrotation Yrotation Xrotation
					End Site
					{
						OFFSET 0.000000 0.000000 0.000000
					}
				}
			}
		}
	}
}
MOTION
Frames: 6
Frame Time: 0.016667
-2956.175537 1239.060913 1145.064941 -1.473412 -2.206596 -1.128503 -0.375306 -0.821688 0.284473 -0.357562 0.122971 -0.118914 -0.365715 -0.153145 0.044832 0.482266 2.301834 -0.701033 0.000000 0.000000 0.000000 -1.036332 0.781542 1.236891 -0.294085 1.534918 -4.457415 0.385166 -0.880711 3.443809 0.000000 0.000000 0.000000 0.477727 1.824413 -1.671132 0.655227 1.318090 1.000483 0.732948 1.543594 1.267508 0.000000 0.000000 0.000000 -0.134921 2.990170 1.718099 0.051792 -4.836331 -0.902736 -0.090127 1.982180 0.178171 0.000000 0.000000 0.000000 -0.693197 1.053711 4.857010 -0.726122 -1.769995 -0.225792 -0.728390 1.907506 -0.031181 0.000000 0.000000 0.000000 
-2956.408447 1238.990845 1145.063965 -1.464955 -2.215201 -1.126783 -0.379322 -0.818325 0.277076 -0.361678 0.122187 -0.118114 -0.369805 -0.152624 0.043845 0.485369 2.323024 -0.702634 0.000000 0.000000 0.000000 -1.038173 0.791301 1.249641 -0.291488 1.544308 -4.447545 0.388215 -0.903222 3.446467 0.000000 0.000000 0.000000 0.475117 1.823385 -1.664585 0.653223 1.321146 0.986645 0.732822 1.548226 1.263009 0.000000 0.000000 0.000000 -0.136816 2.968293 1.717738 0.048549 -4.798999 -0.895805 -0.092165 1.980331 0.177165 0.000000 0.000000 0.000000 -0.695936 1.053449 4.854740 -0.728820 -1.783449 -0.217882 -0.730206 1.934834 -0.028073 0.000000 0.000000 0.000000 
-2956.644531 1238.917847 1145.060059 -1.454485 -2.224692 -1.124762 -0.385002 -0.815249 0.270635 -0.367424 0.122758 -0.119344 -0.375543 -0.152191 0.044222 0.488246 2.339695 -0.705427 0.000000 0.000000 0.000000 -1.035971 0.801104 1.261391 -0.288588 1.554248 -4.437692 0.392085 -0.928840 3.454360 0.000000 0.000000 0.000000 0.476324 1.822255 -1.657196 0.650517 1.323867 0.972084 0.731322 1.551309 1.254982 0.000000 0.000000 0.000000 -0.139284 2.945675 1.717045 0.044633 -4.758011 -0.888447 -0.094753 1.976793 0.175758 0.000000 0.000000 0.000000 -0.699341 1.053236 4.851768 -0.732169 -1.796019 -0.208909 -0.732514 1.962309 -0.025146 0.000000 0.000000 0.000000 
-2956.882568 1238.836914 1145.053955 -1.443284 -2.233703 -1.122082 -0.389411 -0.812690 0.260777 -0.371903 0.122272 -0.117862 -0.379993 -0.151042 0.043294 0.490730 2.353346 -0.708176 0.000000 0.000000 0.000000 -1.037158 0.811366 1.274870 -0.286010 1.564135 -4.426333 0.395231 -0.950215 3.459962 0.000000 0.000000 0.000000 0.473687 1.819877 -1.647050 0.647626 1.326864 0.954799 0.730497 1.555136 1.248718 0.000000 0.000000 0.000000 -0.142340 2.923467 1.715294 0.040205 -4.719189 -0.879345 -0.097639 1.974569 0.174375 0.000000 0.000000 0.000000 -0.703104 1.050885 4.848538 -0.735868 -1.805857 -0.200109 -0.735194 1.990088 -0.022330 0.000000 0.000000 0.000000 
-2957.125000 1238.749146 1145.046021 -1.431975 -2.242196 -1.119065 -0.391096 -0.809769 0.248712 -0.373667 0.121334 -0.115261 -0.381745 -0.150233 0.041075 0.492596 2.364965 -0.709670 0.000000 0.000000 0.000000 -1.045345 0.821713 1.292612 -0.284158 1.573716 -4.415339 0.397245 -0.964607 3.462516 0.000000 0.000000 0.000000 0.463074 1.815406 -1.633753 0.644773 1.330200 0.933214 0.731636 1.561061 1.247617 0.000000 0.000000 0.000000 -0.145562 2.902379 1.712049 0.035767 -4.684673 -0.867348 -0.100221 1.975257 0.173426 0.000000 0.000000 0.000000 -0.707153 1.045777 4.845593 -0.739850 -1.812205 -0.191730 -0.738218 2.018666 -0.019544 0.000000 0.000000 0.000000 
-2957.370361 1238.654419 1145.036011 -1.420078 -2.250604 -1.115711 -0.391889 -0.807188 0.234951 -0.374514 0.120824 -0.112124 -0.382622 -0.149804 0.038378 0.494219 2.373912 -0.711496 0.000000 0.000000 0.000000 -1.055906 0.831982 1.312345 -0.282741 1.583008 -4.403196 0.398437 -0.973780 3.463084 0.000000 0.000000 0.000000 0.449962 1.809652 -1.617841 0.641749 1.333608 0.908778 0.733617 1.568022 1.248617 0.000000 0.000000 0.000000 -0.149092 2.881899 1.708170 0.031092 -4.651976 -0.853975 -0.102880 1.977290 0.172591 0.000000 0.000000 0.000000 -0.711481 1.039055 4.842807 -0.744105 -1.816213 -0.183636 -0.741552 2.047706 -0.016821 0.000000 0.000000 0.000000 
